<?xml version="1.0"?>
<svg xmlns="http://www.w3.org/2000/svg" width="512" height="512" viewBox="0 0 128 128"><g><path d="M111.187,115.25h-7.75V19.366a5.756,5.756,0,0,0-5.75-5.75H65.75V1.747A1.75,1.75,0,0,0,64,0H34.75A1.75,1.75,0,0,0,33,1.747V13.616H30.312a5.757,5.757,0,0,0-5.75,5.75V115.25h-7.75a1.751,1.751,0,0,0-1.75,1.75v9.247a1.751,1.751,0,0,0,1.75,1.75h94.375a1.75,1.75,0,0,0,1.75-1.75V117A1.75,1.75,0,0,0,111.187,115.25ZM36.5,3.5H62.25V13.616H36.5ZM28.062,19.366a2.253,2.253,0,0,1,2.25-2.25H97.687a2.252,2.252,0,0,1,2.25,2.25V115.25H77v-19h4.372a1.75,1.75,0,0,0,1.75-1.75v-7.87a1.75,1.75,0,0,0-1.75-1.75H46.625a1.75,1.75,0,0,0-1.75,1.75V94.5a1.75,1.75,0,0,0,1.75,1.75H51v19H28.062ZM48.375,92.745v-4.37h31.25v4.37Zm6.122,3.5H73.5v19H54.5Zm54.94,28.252H18.562V118.75h90.875Z"/><path d="M36.312,36.756H56.625a1.75,1.75,0,0,0,1.75-1.75v-9.64a1.749,1.749,0,0,0-1.75-1.75H36.312a1.75,1.75,0,0,0-1.75,1.75v9.64A1.751,1.751,0,0,0,36.312,36.756Zm1.75-9.64H54.875v6.14H38.062Z"/><path d="M36.312,57.561H56.625a1.749,1.749,0,0,0,1.75-1.75v-9.64a1.75,1.75,0,0,0-1.75-1.75H36.312a1.751,1.751,0,0,0-1.75,1.75v9.64A1.75,1.75,0,0,0,36.312,57.561Zm1.75-9.64H54.875v6.14H38.062Z"/><path d="M58.375,76.617v-9.64a1.749,1.749,0,0,0-1.75-1.75H36.312a1.75,1.75,0,0,0-1.75,1.75v9.64a1.751,1.751,0,0,0,1.75,1.75H56.625A1.75,1.75,0,0,0,58.375,76.617Zm-3.5-1.75H38.062v-6.14H54.875Z"/><path d="M71.375,36.756H91.687a1.75,1.75,0,0,0,1.75-1.75v-9.64a1.749,1.749,0,0,0-1.75-1.75H71.375a1.749,1.749,0,0,0-1.75,1.75v9.64A1.75,1.75,0,0,0,71.375,36.756Zm1.75-9.64H89.937v6.14H73.125Z"/><path d="M71.375,57.561H91.687a1.749,1.749,0,0,0,1.75-1.75v-9.64a1.75,1.75,0,0,0-1.75-1.75H71.375a1.75,1.75,0,0,0-1.75,1.75v9.64A1.749,1.749,0,0,0,71.375,57.561Zm1.75-9.64H89.937v6.14H73.125Z"/><path d="M71.375,78.367H91.687a1.75,1.75,0,0,0,1.75-1.75v-9.64a1.749,1.749,0,0,0-1.75-1.75H71.375a1.749,1.749,0,0,0-1.75,1.75v9.64A1.75,1.75,0,0,0,71.375,78.367Zm1.75-9.64H89.937v6.14H73.125Z"/></g></svg>
