<svg id="Capa_1" enable-background="new 0 0 512 512" height="512" viewBox="0 0 512 512" width="512" xmlns="http://www.w3.org/2000/svg"><g fill="rgb(0,0,0)"><g><path d="m444.681 2.643 8.871 24.944c.38 1.068 1.132 1.914 2.081 2.342l22.162 9.985c3.131 1.411 3.131 6.399 0 7.81l-22.162 9.985c-.949.428-1.701 1.274-2.081 2.342l-8.871 24.944c-1.253 3.524-5.685 3.524-6.939 0l-8.871-24.944c-.38-1.068-1.132-1.914-2.081-2.342l-22.162-9.985c-3.131-1.411-3.131-6.399 0-7.81l22.162-9.985c.949-.428 1.701-1.274 2.081-2.342l8.871-24.944c1.254-3.524 5.686-3.524 6.939 0z"/><ellipse cx="103.756" cy="27.657" rx="14.343" ry="14.343" transform="matrix(.123 -.993 .993 .123 63.587 127.239)"/><circle cx="40.213" cy="76.95" r="8.356"/></g><g><path d="m405.833 128.219h-1.739v-20.931c0-18.439-15.001-33.44-33.44-33.44h-.284c-18.44 0-33.441 15.002-33.441 33.441v20.931h-15.92v-20.931c0-18.439-15.001-33.441-33.44-33.441h-.284c-18.439 0-33.44 15.002-33.44 33.441v20.931h-15.92v-20.79c0-18.517-15.065-33.583-33.583-33.583-18.517 0-33.582 15.065-33.582 33.583v20.789h-15.92v-20.931c0-18.439-15.001-33.441-33.44-33.441h-.285c-18.439 0-33.44 15.002-33.44 33.441v20.931h-2.24c-18.765 0-34.032 15.267-34.032 34.033v54.441c0 10.705 4.973 20.267 12.725 26.51v194.917c0 40.738 33.143 73.881 73.881 73.881h215.751c40.738 0 73.881-33.143 73.881-73.881v-195.326c7.466-6.248 12.224-15.628 12.224-26.102v-54.441c.001-18.765-15.266-34.032-34.032-34.032zm-48.82-20.931c0-7.365 5.992-13.356 13.356-13.356h.284c7.365 0 13.356 5.991 13.356 13.355v52.142c0 7.365-5.991 13.356-13.356 13.356h-.285c-7.364 0-13.355-5.991-13.355-13.356zm-83.084 0c0-7.365 5.991-13.356 13.355-13.356h.284c7.365 0 13.356 5.992 13.356 13.356v52.142c0 7.365-5.991 13.356-13.356 13.356h-.284c-7.365 0-13.355-5.991-13.355-13.356zm-83.085.142c0-7.443 6.055-13.498 13.498-13.498s13.498 6.055 13.498 13.498v51.857c0 7.442-6.055 13.498-13.498 13.498-7.442 0-13.498-6.055-13.498-13.498zm-83.085-.142c0-7.365 5.991-13.356 13.356-13.356h.285c7.365 0 13.356 5.992 13.356 13.356v52.142c0 7.365-5.991 13.356-13.356 13.356h-.285c-7.365 0-13.356-5.991-13.356-13.356zm-36.273 54.964c0-7.691 6.257-13.948 13.948-13.948h2.24v11.126c0 18.439 15.001 33.44 33.44 33.44h.285c18.439 0 33.44-15.001 33.44-33.44v-11.126h15.92v10.984c0 18.517 15.065 33.582 33.582 33.582 18.518 0 33.583-15.065 33.583-33.582v-10.984h15.92v11.126c0 18.439 15.001 33.44 33.44 33.44h.284c18.439 0 33.44-15.001 33.44-33.44v-11.126h15.92v11.126c0 18.439 15.001 33.44 33.44 33.44h.285c18.439 0 33.44-15.001 33.44-33.44v-11.126h1.739c7.691 0 13.948 6.257 13.948 13.948v54.441c0 7.691-6.257 13.948-13.948 13.948h-320.398c-7.691 0-13.948-6.257-13.948-13.948zm336.071 275.867c0 29.664-24.133 53.796-53.796 53.796h-215.753c-29.663 0-53.796-24.133-53.796-53.796v-187.425c.406.014.812.031 1.222.031h320.399c.578 0 1.153-.015 1.724-.044z"/><path d="m250.428 290.671h-26.193c-5.546 0-10.042 4.496-10.042 10.042s4.496 10.042 10.042 10.042h16.151v112.505c0 5.546 4.496 10.042 10.042 10.042s10.042-4.496 10.042-10.042v-122.546c0-5.547-4.495-10.043-10.042-10.043z"/></g></g></svg>